<?xml version="1.0" standalone="no"?>
 <!DOCTYPE svg PUBLIC "-//W3C//DTD SVG 1.1//EN" 
 "http://www.w3.org/Graphics/SVG/1.1/DTD/svg11.dtd"> 
<svg
  xmlns:svg="http://www.w3.org/2000/svg"
  xmlns="http://www.w3.org/2000/svg"
  xmlns:xlink="http://www.w3.org/1999/xlink"
  version="1.1"
  width="7.101840cm" height="12.857480cm" viewBox="0 0 71018400 128574800">
<title>SVG Picture created as 4x_laser_controller_fp-Edge_Cuts.svg date 2022/11/09 19:25:29 </title>
  <desc>Picture generated by PCBNEW </desc>
<g style="fill:#000000; fill-opacity:1.000000;stroke:#000000; stroke-opacity:1.000000;
stroke-linecap:round; stroke-linejoin:round;"
 transform="translate(0 0) scale(1 1)">
</g>
<g style="fill:#000000; fill-opacity:0.0; 
stroke:#000000; stroke-width:0.000000; stroke-opacity:1; 
stroke-linecap:round; stroke-linejoin:round;">
</g>
<g style="fill:#000000; fill-opacity:0.0; 
stroke:#000000; stroke-width:100000.000000; stroke-opacity:1; 
stroke-linecap:round; stroke-linejoin:round;">
<circle cx="52142350.000000" cy="111400000.000000" r="1050000.000000" /> 
<circle cx="64012350.000000" cy="17775000.000000" r="1600000.000000" /> 
<circle cx="7012350.000000" cy="17775000.000000" r="1600000.000000" /> 
<circle cx="15927350.000000" cy="101130000.000000" r="1550000.000000" /> 
<circle cx="45012350.000000" cy="17775000.000000" r="1600000.000000" /> 
<circle cx="26117350.000000" cy="77900000.000000" r="3175000.000000" /> 
<circle cx="26012350.000000" cy="64875000.000000" r="1600000.000000" /> 
<path d="M192350 50000
L70992350 50000
" />
<path d="M70992350 50000
L70992350 128550000
" />
<path d="M70992350 128550000
L192350 128550000
" />
<path d="M192350 128550000
L192350 50000
" />
<circle cx="45117350.000000" cy="91800000.000000" r="3050000.000000" /> 
<circle cx="15927350.000000" cy="91330000.000000" r="1550000.000000" /> 
<circle cx="26012350.000000" cy="17775000.000000" r="1600000.000000" /> 
<circle cx="45012350.000000" cy="64875000.000000" r="1600000.000000" /> 
<circle cx="26117350.000000" cy="91800000.000000" r="3050000.000000" /> 
<circle cx="26117350.000000" cy="105525000.000000" r="3550000.000000" /> 
<circle cx="63572350.000000" cy="3050000.000000" r="1550000.000000" /> 
<circle cx="64117350.000000" cy="77900000.000000" r="3175000.000000" /> 
<circle cx="45117350.000000" cy="77900000.000000" r="3175000.000000" /> 
<path d="M55072350 92290000
L64972350 92290000
" />
<path d="M64972350 92290000
L64972350 113650000
" />
<path d="M64972350 113650000
L55072350 113650000
" />
<path d="M55072350 113650000
L55072350 92290000
" />
<circle cx="15927350.000000" cy="96230000.000000" r="1550000.000000" /> 
<circle cx="7012350.000000" cy="64875000.000000" r="1600000.000000" /> 
<circle cx="7692350.000000" cy="3050000.000000" r="1550000.000000" /> 
<circle cx="63572350.000000" cy="125550000.000000" r="1550000.000000" /> 
<circle cx="15927350.000000" cy="106030000.000000" r="1550000.000000" /> 
<circle cx="64012350.000000" cy="64875000.000000" r="1600000.000000" /> 
<circle cx="67842350.000000" cy="111400000.000000" r="1050000.000000" /> 
<circle cx="7692350.000000" cy="125550000.000000" r="1550000.000000" /> 
<circle cx="7117350.000000" cy="77900000.000000" r="3175000.000000" /> 
</g>
<g style="fill:#000000; fill-opacity:0.0; 
stroke:#000000; stroke-width:120000.000000; stroke-opacity:1; 
stroke-linecap:round; stroke-linejoin:round;">
<path d="M50927350 59134765
L50927350 23564765
" />
<path d="M41647350 62749765
L48527350 61349765
" />
<path d="M48527350 21349765
L41647350 19949765
" />
<path d="M39247350 60349765
L39247350 22349765
" />
<path d="M50927350.461109 23564764.898425 A2856056.000000 2856056.000000 0.0 0 0 48527350.058376 21349764.575598" />
<path d="M48527350.026384 61349765.186010 A2873444.000000 2873444.000000 0.0 0 0 50927350.388728 59134765.087349" />
<path d="M39247350.464957 60349765.024033 A2285090.000000 2285090.000000 0.0 0 0 41647349.975967 62749764.535043" />
<path d="M41647350.000372 19949764.992157 A2293915.000000 2293915.000000 0.0 0 0 39247349.992157 22349765.000372" />
<path d="M67527350 21349765
L60647350 19949765
" />
<path d="M58247350 60349765
L58247350 22349765
" />
<path d="M69927350 59134765
L69927350 23564765
" />
<path d="M60647350 62749765
L67527350 61349765
" />
<path d="M67527350.026384 61349765.186010 A2873444.000000 2873444.000000 0.0 0 0 69927350.388728 59134765.087349" />
<path d="M60647350.000372 19949764.992157 A2293915.000000 2293915.000000 0.0 0 0 58247349.992157 22349765.000372" />
<path d="M69927350.461109 23564764.898425 A2856056.000000 2856056.000000 0.0 0 0 67527350.058376 21349764.575598" />
<path d="M58247350.464957 60349765.024033 A2285090.000000 2285090.000000 0.0 0 0 60647349.975967 62749764.535043" />
<path d="M22647350 62749765
L29527350 61349765
" />
<path d="M29527350 21349765
L22647350 19949765
" />
<path d="M31927350 59134765
L31927350 23564765
" />
<path d="M20247350 60349765
L20247350 22349765
" />
<path d="M20247350.464957 60349765.024033 A2285090.000000 2285090.000000 0.0 0 0 22647349.975967 62749764.535043" />
<path d="M22647350.000372 19949764.992157 A2293915.000000 2293915.000000 0.0 0 0 20247349.992157 22349765.000372" />
<path d="M29527350.026384 61349765.186010 A2873444.000000 2873444.000000 0.0 0 0 31927350.388728 59134765.087349" />
<path d="M31927350.461109 23564764.898425 A2856056.000000 2856056.000000 0.0 0 0 29527350.058376 21349764.575598" />
<path d="M12927350 59134765
L12927350 23564765
" />
<path d="M3647350 62749765
L10527350 61349765
" />
<path d="M10527350 21349765
L3647350 19949765
" />
<path d="M1247350 60349765
L1247350 22349765
" />
<path d="M3647350.000372 19949764.992157 A2293915.000000 2293915.000000 0.0 0 0 1247349.992157 22349765.000372" />
<path d="M1247350.464957 60349765.024033 A2285090.000000 2285090.000000 0.0 0 0 3647349.975967 62749764.535043" />
<path d="M10527350.026384 61349765.186010 A2873444.000000 2873444.000000 0.0 0 0 12927350.388728 59134765.087349" />
<path d="M12927350.461109 23564764.898425 A2856056.000000 2856056.000000 0.0 0 0 10527350.058376 21349764.575598" />
<g >
</g>
<g >
</g>
<g >
</g>
<g >
</g>
<g >
</g>
<g >
</g>
<g >
</g>
</g> 
</svg>
